<?xml version="1.0" encoding="iso-8859-1"?>
<!-- Generator: Adobe Illustrator 16.0.0, SVG Export Plug-In . SVG Version: 6.00 Build 0)  -->
<!DOCTYPE svg PUBLIC "-//W3C//DTD SVG 1.1//EN" "http://www.w3.org/Graphics/SVG/1.1/DTD/svg11.dtd">
<svg version="1.1" id="Layer_1" xmlns="http://www.w3.org/2000/svg" xmlns:xlink="http://www.w3.org/1999/xlink" x="0px" y="0px"
	 width="1000px" height="1000px" viewBox="0 0 1000 1000" style="enable-background:new 0 0 1000 1000;" xml:space="preserve">
<path style="fill:#006633;" d="M954.262,270.978c-10.904-41.059-43.032-73.396-83.826-84.37
	C796.495,166.667,500,166.667,500,166.667s-296.493,0-370.436,19.941c-40.793,10.976-72.922,43.311-83.827,84.37
	c-19.813,74.422-19.813,229.696-19.813,229.696s0,155.274,19.813,229.696c10.905,41.059,43.033,72.048,83.827,83.022
	C203.507,833.333,500,833.333,500,833.333s296.493,0,370.436-19.94c40.794-10.975,72.922-41.964,83.826-83.022
	c19.813-74.422,19.813-229.696,19.813-229.696S974.074,345.399,954.262,270.978z M403.029,641.651V359.696l247.811,140.98
	L403.029,641.651z"/>
</svg>
